<?xml version="1.0" standalone="no"?>
<!DOCTYPE svg PUBLIC "-//W3C//DTD SVG 20010904//EN"
 "http://www.w3.org/TR/2001/REC-SVG-20010904/DTD/svg10.dtd">
<svg version="1.0" xmlns="http://www.w3.org/2000/svg"
 width="720.000000pt" height="720.000000pt" viewBox="0 0 720.000000 720.000000"
 preserveAspectRatio="xMidYMid meet">
<metadata>
Created by potrace 1.14, written by Peter Selinger 2001-2017
</metadata>
<g transform="translate(0.000000,720.000000) scale(0.100000,-0.100000)"
fill="#000000" stroke="none">
<path d="M3362 5559 c-310 -36 -616 -175 -861 -392 -93 -83 -125 -123 -64 -81
61 42 231 121 330 154 191 63 266 74 513 74 247 1 333 -12 525 -75 317 -104
626 -340 812 -619 298 -447 334 -1011 94 -1488 -73 -144 -159 -261 -289 -391
-68 -67 -117 -120 -110 -115 285 166 500 391 637 669 220 445 224 945 11 1390
-80 166 -160 276 -304 420 -219 218 -435 343 -718 416 -175 44 -396 59 -576
38z"/>
<path d="M2995 5074 c-352 -53 -651 -202 -893 -444 -226 -226 -379 -518 -438
-835 -28 -149 -25 -441 5 -585 71 -336 224 -610 467 -839 54 -50 99 -89 101
-87 3 2 -19 37 -48 78 -109 150 -195 348 -245 563 -27 113 -28 133 -28 345 0
248 11 324 74 520 146 448 510 822 953 979 164 58 271 75 472 75 206 0 309
-15 471 -69 224 -74 400 -183 588 -364 83 -80 85 -79 23 9 -292 419 -783 672
-1297 669 -63 -1 -155 -7 -205 -15z"/>
<path d="M1759 4853 c-681 -708 -678 -1774 5 -2478 l87 -90 -55 110 c-77 157
-90 186 -140 333 -95 279 -139 557 -139 892 0 461 85 828 283 1223 27 53 48
97 46 97 -2 0 -41 -39 -87 -87z"/>
<path d="M5004 4875 c10 -16 29 -43 41 -60 105 -141 210 -425 245 -660 16
-104 16 -347 1 -455 -63 -438 -299 -830 -649 -1080 -102 -73 -292 -167 -412
-205 -162 -50 -304 -68 -495 -62 -188 7 -294 25 -440 77 -201 72 -381 181
-534 324 l-54 51 32 -45 c90 -130 255 -289 388 -377 635 -416 1476 -327 1989
210 228 238 348 461 415 767 33 157 38 422 11 586 -50 292 -163 534 -355 758
-87 102 -213 219 -183 171z"/>
<path d="M2769 4479 c-41 -29 -126 -104 -189 -168 -543 -547 -609 -1388 -158
-2026 81 -114 238 -271 359 -358 100 -71 291 -170 399 -207 203 -69 439 -98
644 -80 413 37 785 223 1047 524 43 49 77 91 75 93 -2 2 -41 -23 -87 -56 -171
-123 -385 -215 -605 -262 -95 -21 -136 -24 -324 -23 -183 0 -230 3 -315 22
-340 74 -607 221 -841 465 -370 383 -503 929 -353 1439 63 214 185 425 344
596 48 50 85 92 82 92 -2 0 -37 -23 -78 -51z"/>
<path d="M3460 4067 c-53 -18 -140 -69 -140 -83 0 -1 21 7 48 19 39 18 65 22
152 22 97 0 110 -2 170 -31 82 -39 150 -106 192 -191 29 -59 32 -75 32 -152 1
-73 -4 -95 -26 -143 -15 -32 -39 -75 -54 -95 -26 -36 -25 -35 23 11 119 114
153 296 82 443 -28 57 -101 138 -155 169 -96 57 -216 68 -324 31z"/>
<path d="M3385 3953 c-77 -28 -140 -69 -179 -116 -89 -109 -118 -252 -76 -376
22 -66 61 -131 99 -165 18 -16 17 -11 -8 40 -126 251 36 555 304 572 93 6 162
-11 227 -55 75 -50 77 -50 29 0 -24 25 -73 60 -108 78 -56 28 -77 33 -151 36
-65 3 -100 -1 -137 -14z"/>
<path d="M3106 3871 c-75 -102 -105 -217 -86 -331 13 -79 55 -170 99 -220 l32
-35 -15 31 c-72 150 -75 397 -7 557 11 26 19 47 16 47 -2 0 -19 -22 -39 -49z"/>
<path d="M3970 3898 c0 -3 11 -30 25 -61 83 -180 -1 -421 -177 -510 -110 -56
-229 -57 -341 -2 l-52 25 39 -35 c58 -52 135 -78 231 -79 131 -1 236 51 315
157 103 136 101 332 -5 466 -19 24 -35 41 -35 39z"/>
<path d="M3348 3783 c-194 -204 -139 -518 112 -637 59 -28 74 -31 160 -31 118
1 183 24 261 94 l54 49 -74 -36 c-72 -36 -79 -37 -180 -37 -94 0 -113 3 -162
26 -65 31 -128 85 -169 144 -79 116 -78 300 4 410 49 65 46 72 -6 18z"/>
</g>
</svg>
